<svg width="16" height="16" viewBox="0 0 16 16" fill="none" xmlns="http://www.w3.org/2000/svg">
<path d="M14.3337 7.26732V2.73398C14.3337 1.73398 13.907 1.33398 12.847 1.33398H10.1537C9.09366 1.33398 8.66699 1.73398 8.66699 2.73398V7.26732C8.66699 8.26732 9.09366 8.66732 10.1537 8.66732H12.847C13.907 8.66732 14.3337 8.26732 14.3337 7.26732Z" fill="white"/>
<path d="M7.33366 8.73398V13.2673C7.33366 14.2673 6.90699 14.6673 5.84699 14.6673H3.15366C2.09366 14.6673 1.66699 14.2673 1.66699 13.2673V8.73398C1.66699 7.73398 2.09366 7.33398 3.15366 7.33398H5.84699C6.90699 7.33398 7.33366 7.73398 7.33366 8.73398Z" fill="white"/>
<path opacity="0.4" d="M14.3337 13.2667V11.4C14.3337 10.4 13.907 10 12.847 10H10.1537C9.09366 10 8.66699 10.4 8.66699 11.4V13.2667C8.66699 14.2667 9.09366 14.6667 10.1537 14.6667H12.847C13.907 14.6667 14.3337 14.2667 14.3337 13.2667Z" fill="white"/>
<path opacity="0.4" d="M7.33366 4.60065V2.73398C7.33366 1.73398 6.90699 1.33398 5.84699 1.33398H3.15366C2.09366 1.33398 1.66699 1.73398 1.66699 2.73398V4.60065C1.66699 5.60065 2.09366 6.00065 3.15366 6.00065H5.84699C6.90699 6.00065 7.33366 5.60065 7.33366 4.60065Z" fill="white"/>
</svg>
