<svg width="16" height="16" viewBox="0 0 16 16" fill="none" xmlns="http://www.w3.org/2000/svg">
<path d="M14.6667 7.26732V2.73398C14.6667 1.73398 14.24 1.33398 13.18 1.33398H10.4867C9.42667 1.33398 9 1.73398 9 2.73398V7.26732C9 8.26732 9.42667 8.66732 10.4867 8.66732H13.18C14.24 8.66732 14.6667 8.26732 14.6667 7.26732Z" stroke="#292D32" stroke-width="1.5" stroke-linecap="round" stroke-linejoin="round"/>
<path opacity="0.4" d="M14.6667 13.266V12.066C14.6667 11.066 14.24 10.666 13.18 10.666H10.4867C9.42667 10.666 9 11.066 9 12.066V13.266C9 14.266 9.42667 14.666 10.4867 14.666H13.18C14.24 14.666 14.6667 14.266 14.6667 13.266Z" stroke="#292D32" stroke-width="1.5" stroke-linecap="round" stroke-linejoin="round"/>
<path d="M6.99967 8.73398V13.2673C6.99967 14.2673 6.57301 14.6673 5.51301 14.6673H2.81967C1.75967 14.6673 1.33301 14.2673 1.33301 13.2673V8.73398C1.33301 7.73398 1.75967 7.33398 2.81967 7.33398H5.51301C6.57301 7.33398 6.99967 7.73398 6.99967 8.73398Z" stroke="#292D32" stroke-width="1.5" stroke-linecap="round" stroke-linejoin="round"/>
<path opacity="0.4" d="M6.99967 2.73398V3.93398C6.99967 4.93398 6.57301 5.33398 5.51301 5.33398H2.81967C1.75967 5.33398 1.33301 4.93398 1.33301 3.93398V2.73398C1.33301 1.73398 1.75967 1.33398 2.81967 1.33398H5.51301C6.57301 1.33398 6.99967 1.73398 6.99967 2.73398Z" stroke="#292D32" stroke-width="1.5" stroke-linecap="round" stroke-linejoin="round"/>
</svg>
