<svg width="18" height="18" viewBox="0 0 18 18" fill="none" xmlns="http://www.w3.org/2000/svg">
<path d="M16.5 9V6.75C16.5 3 15 1.5 11.25 1.5H6.75C3 1.5 1.5 3 1.5 6.75V11.25C1.5 15 3 16.5 6.75 16.5H9" stroke="#292D32" stroke-width="1.2" stroke-linecap="round" stroke-linejoin="round"/>
<path opacity="0.4" d="M15.7183 13.3808L14.4958 13.7934C14.1583 13.9059 13.8883 14.1684 13.7758 14.5134L13.3633 15.7359C13.0108 16.7934 11.5258 16.7709 11.1958 15.7134L9.8083 11.2508C9.5383 10.3658 10.3558 9.54085 11.2333 9.81835L15.7033 11.2059C16.7533 11.5359 16.7683 13.0283 15.7183 13.3808Z" stroke="#292D32" stroke-width="1.2" stroke-linecap="round" stroke-linejoin="round"/>
</svg>
