<svg width="18" height="18" viewBox="0 0 18 18" fill="none" xmlns="http://www.w3.org/2000/svg">
<path opacity="0.4" d="M11.6084 1.5H5.64586C3.05086 1.5 1.50586 3.04499 1.50586 5.63999V11.6025C1.50586 14.1975 3.05836 15.7425 5.64586 15.7425H11.6084C14.2034 15.7425 15.7484 14.1975 15.7484 11.6025V5.63999C15.7484 3.04499 14.1959 1.5 11.6084 1.5Z" fill="white"/>
<path d="M16.4683 14.1308L15.2458 14.5434C14.9083 14.6559 14.6383 14.9184 14.5258 15.2634L14.1133 16.4859C13.7608 17.5434 12.2758 17.5209 11.9458 16.4634L10.5583 12.0008C10.2883 11.1158 11.1058 10.2908 11.9833 10.5683L16.4533 11.9559C17.5033 12.2859 17.5183 13.7783 16.4683 14.1308Z" fill="white"/>
</svg>
