<svg width="18" height="18" viewBox="0 0 18 18" fill="none" xmlns="http://www.w3.org/2000/svg">
<path opacity="0.4" d="M12.5791 14.2343H5.42415C5.10915 14.2343 4.82415 14.0318 4.71915 13.7393L1.59915 5.0018C1.35165 4.3043 2.14665 3.7118 2.73915 4.1393L5.73915 6.2843C6.13665 6.5693 6.70665 6.3968 6.87915 5.9393L8.29665 2.1593C8.53665 1.5068 9.45915 1.5068 9.69915 2.1593L11.1166 5.9393C11.2891 6.4043 11.8516 6.5693 12.2566 6.2843L15.2566 4.1393C15.8566 3.7118 16.6441 4.3118 16.3966 5.0018L13.2766 13.7393C13.1791 14.0318 12.8941 14.2343 12.5791 14.2343Z" fill="white"/>
<path d="M12.75 16.5H5.25C4.9425 16.5 4.6875 16.245 4.6875 15.9375C4.6875 15.63 4.9425 15.375 5.25 15.375H12.75C13.0575 15.375 13.3125 15.63 13.3125 15.9375C13.3125 16.245 13.0575 16.5 12.75 16.5Z" fill="white"/>
<path d="M10.875 11.0625H7.125C6.8175 11.0625 6.5625 10.8075 6.5625 10.5C6.5625 10.1925 6.8175 9.9375 7.125 9.9375H10.875C11.1825 9.9375 11.4375 10.1925 11.4375 10.5C11.4375 10.8075 11.1825 11.0625 10.875 11.0625Z" fill="white"/>
</svg>
