<svg width="18" height="18" viewBox="0 0 18 18" fill="none" xmlns="http://www.w3.org/2000/svg">
<path d="M12.5273 14.2345H5.47735C5.16235 14.2345 4.80985 13.987 4.70485 13.687L1.59985 5.00203C1.15735 3.75703 1.67485 3.37453 2.73985 4.13953L5.66485 6.23203C6.15235 6.56953 6.70735 6.39703 6.91735 5.84953L8.23735 2.33203C8.65735 1.20703 9.35485 1.20703 9.77485 2.33203L11.0948 5.84953C11.3048 6.39703 11.8598 6.56953 12.3398 6.23203L15.0848 4.27453C16.2548 3.43453 16.8173 3.86203 16.3373 5.21953L13.3073 13.702C13.1948 13.987 12.8423 14.2345 12.5273 14.2345Z" stroke="black" stroke-width="1.2" stroke-linecap="round" stroke-linejoin="round"/>
<path opacity="0.34" d="M4.875 16.5H13.125" stroke="black" stroke-width="1.2" stroke-linecap="round" stroke-linejoin="round"/>
<path opacity="0.34" d="M7.125 10.5H10.875" stroke="black" stroke-width="1.2" stroke-linecap="round" stroke-linejoin="round"/>
</svg>
