<svg width="18" height="18" viewBox="0 0 18 18" fill="none" xmlns="http://www.w3.org/2000/svg">
<path d="M9 4.16992H16.5" stroke="black" stroke-width="1.2" stroke-miterlimit="10" stroke-linecap="round" stroke-linejoin="round"/>
<path d="M10.665 1.5H14.835C16.17 1.5 16.5 1.83 16.5 3.15V6.2325C16.5 7.5525 16.17 7.8825 14.835 7.8825H10.665C9.33 7.8825 9 7.5525 9 6.2325V3.15C9 1.83 9.33 1.5 10.665 1.5Z" stroke="black" stroke-width="1.2" stroke-linecap="round" stroke-linejoin="round"/>
<path d="M1.5 12.7949H9" stroke="black" stroke-width="1.2" stroke-miterlimit="10" stroke-linecap="round" stroke-linejoin="round"/>
<path d="M3.165 10.125H7.335C8.67 10.125 9 10.455 9 11.775V14.8575C9 16.1775 8.67 16.5075 7.335 16.5075H3.165C1.83 16.5075 1.5 16.1775 1.5 14.8575V11.775C1.5 10.455 1.83 10.125 3.165 10.125Z" stroke="black" stroke-width="1.2" stroke-linecap="round" stroke-linejoin="round"/>
<path opacity="0.4" d="M16.5 11.25C16.5 14.1525 14.1525 16.5 11.25 16.5L12.0375 15.1875" stroke="black" stroke-width="1.2" stroke-linecap="round" stroke-linejoin="round"/>
<path opacity="0.4" d="M1.5 6.75C1.5 3.8475 3.8475 1.5 6.75 1.5L5.96251 2.8125" stroke="black" stroke-width="1.2" stroke-linecap="round" stroke-linejoin="round"/>
</svg>
