<svg width="18" height="18" viewBox="0 0 18 18" fill="none" xmlns="http://www.w3.org/2000/svg">
<path opacity="0.4" d="M6.75 1.5C4.785 1.5 3.1875 3.0975 3.1875 5.0625C3.1875 6.99 4.695 8.55 6.66 8.6175C6.72 8.61 6.78 8.61 6.825 8.6175C6.84 8.6175 6.8475 8.6175 6.8625 8.6175C6.87 8.6175 6.87 8.6175 6.8775 8.6175C8.7975 8.55 10.305 6.99 10.3125 5.0625C10.3125 3.0975 8.715 1.5 6.75 1.5Z" fill="white"/>
<path d="M10.5607 10.6127C8.4682 9.21766 5.0557 9.21766 2.9482 10.6127C1.9957 11.2502 1.4707 12.1127 1.4707 13.0352C1.4707 13.9577 1.9957 14.8127 2.9407 15.4427C3.9907 16.1477 5.3707 16.5002 6.7507 16.5002C8.1307 16.5002 9.5107 16.1477 10.5607 15.4427C11.5057 14.8052 12.0307 13.9502 12.0307 13.0202C12.0232 12.0977 11.5057 11.2427 10.5607 10.6127Z" fill="white"/>
<path opacity="0.4" d="M14.992 5.50556C15.112 6.96056 14.077 8.23556 12.6445 8.40806C12.637 8.40806 12.637 8.40806 12.6295 8.40806H12.607C12.562 8.40806 12.517 8.40806 12.4795 8.42306C11.752 8.46056 11.0845 8.22806 10.582 7.80056C11.3545 7.11056 11.797 6.07556 11.707 4.95056C11.6545 4.34306 11.4445 3.78806 11.1295 3.31556C11.4145 3.17306 11.7445 3.08306 12.082 3.05306C13.552 2.92556 14.8645 4.02056 14.992 5.50556Z" fill="white"/>
<path d="M16.4941 12.4428C16.4341 13.1703 15.9691 13.8003 15.1891 14.2278C14.4391 14.6403 13.4941 14.8353 12.5566 14.8128C13.0966 14.3253 13.4116 13.7178 13.4716 13.0728C13.5466 12.1428 13.1041 11.2503 12.2191 10.5378C11.7166 10.1403 11.1316 9.8253 10.4941 9.5928C12.1516 9.1128 14.2366 9.4353 15.5191 10.4703C16.2091 11.0253 16.5616 11.7228 16.4941 12.4428Z" fill="white"/>
</svg>
