<svg width="250" height="236" viewBox="0 0 250 236" fill="none" xmlns="http://www.w3.org/2000/svg">
<g clip-path="url(#clip0_5305_56457)">
<path d="M178.175 174.744C168.357 171.073 154.04 160.354 154.04 153.68C154.04 149.259 154.04 143.735 154.04 136.165C159.713 129.852 164.028 117.036 166.592 102.509C172.573 100.374 175.991 96.9564 180.261 82.0052C184.799 66.079 173.426 66.6204 173.426 66.6204C182.625 36.1673 170.516 7.54705 150.232 9.6482C136.241 -14.8283 89.3799 15.2395 74.6969 13.1437C74.6969 21.538 78.1924 27.8316 78.1924 27.8316C73.0885 37.5227 75.0572 56.8465 76.4905 66.6204C75.6616 66.6056 65.3764 66.7129 69.7391 82.0052C74.0093 96.9559 77.4266 100.374 83.4082 102.509C85.9675 117.036 90.2816 129.852 95.9609 136.165C95.9609 143.735 95.9609 149.259 95.9609 153.68C95.9609 160.354 80.7518 171.595 71.826 174.744C53.3842 181.238 8.06803 199.913 10.9931 234.894C11.6945 243.289 57.8543 252 125 252C192.141 252 238.306 243.289 239.008 234.894C241.932 199.879 196.5 181.598 178.175 174.744Z" fill="black" stroke="white" stroke-width="2"/>
</g>
<defs>
<clipPath id="clip0_5305_56457">
<rect width="252" height="252" fill="white" transform="translate(-1)"/>
</clipPath>
</defs>
</svg>
