<svg width="32" height="32" viewBox="0 0 32 32" fill="none" xmlns="http://www.w3.org/2000/svg">
<path d="M12.0003 29.3327H20.0003C26.667 29.3327 29.3337 26.666 29.3337 19.9993V11.9993C29.3337 5.33268 26.667 2.66602 20.0003 2.66602H12.0003C5.33366 2.66602 2.66699 5.33268 2.66699 11.9993V19.9993C2.66699 26.666 5.33366 29.3327 12.0003 29.3327Z" stroke="#51D1B8" stroke-width="2" stroke-linecap="round" stroke-linejoin="round"/>
<path d="M20.6667 24.6673C22.1333 24.6673 23.3333 23.4673 23.3333 22.0007V10.0007C23.3333 8.53398 22.1333 7.33398 20.6667 7.33398C19.2 7.33398 18 8.53398 18 10.0007V22.0007C18 23.4673 19.1867 24.6673 20.6667 24.6673Z" stroke="#51D1B8" stroke-width="2" stroke-linecap="round" stroke-linejoin="round"/>
<path d="M11.3337 24.666C12.8003 24.666 14.0003 23.466 14.0003 21.9993V17.3327C14.0003 15.866 12.8003 14.666 11.3337 14.666C9.86699 14.666 8.66699 15.866 8.66699 17.3327V21.9993C8.66699 23.466 9.85366 24.666 11.3337 24.666Z" stroke="#51D1B8" stroke-width="2" stroke-linecap="round" stroke-linejoin="round"/>
</svg>
