<svg width="32" height="32" viewBox="0 0 32 32" fill="none" xmlns="http://www.w3.org/2000/svg">
<path d="M22.2708 25.3065H9.73751C9.17751 25.3065 8.55084 24.8665 8.36417 24.3331L2.84417 8.89315C2.05751 6.67982 2.97751 5.99982 4.87084 7.35982L10.0708 11.0798C10.9375 11.6798 11.9242 11.3732 12.2975 10.3998L14.6442 4.14648C15.3908 2.14648 16.6308 2.14648 17.3775 4.14648L19.7242 10.3998C20.0975 11.3732 21.0842 11.6798 21.9375 11.0798L26.8175 7.59982C28.8975 6.10648 29.8975 6.86648 29.0442 9.27982L23.6575 24.3598C23.4575 24.8665 22.8308 25.3065 22.2708 25.3065Z" stroke="#ABDBB3" stroke-width="2" stroke-linecap="round" stroke-linejoin="round"/>
<path d="M8.66699 29.334H23.3337" stroke="#ABDBB3" stroke-width="2" stroke-linecap="round" stroke-linejoin="round"/>
<path d="M12.667 18.666H19.3337" stroke="#ABDBB3" stroke-width="2" stroke-linecap="round" stroke-linejoin="round"/>
</svg>
