<svg width="32" height="32" viewBox="0 0 32 32" fill="none" xmlns="http://www.w3.org/2000/svg">
<path d="M24.666 4.66699L27.3327 7.33366L7.33268 27.3337L4.66602 24.667L24.666 4.66699ZM9.33268 5.33366C11.546 5.33366 13.3327 7.12033 13.3327 9.33366C13.3327 11.547 11.546 13.3337 9.33268 13.3337C7.11935 13.3337 5.33268 11.547 5.33268 9.33366C5.33268 7.12033 7.11935 5.33366 9.33268 5.33366ZM22.666 18.667C24.8793 18.667 26.666 20.4537 26.666 22.667C26.666 24.8803 24.8793 26.667 22.666 26.667C20.4527 26.667 18.666 24.8803 18.666 22.667C18.666 20.4537 20.4527 18.667 22.666 18.667ZM9.33268 8.00033C8.59935 8.00033 7.99935 8.60033 7.99935 9.33366C7.99935 10.067 8.59935 10.667 9.33268 10.667C10.066 10.667 10.666 10.067 10.666 9.33366C10.666 8.60033 10.066 8.00033 9.33268 8.00033ZM22.666 21.3337C21.9327 21.3337 21.3327 21.9337 21.3327 22.667C21.3327 23.4003 21.9327 24.0003 22.666 24.0003C23.3993 24.0003 23.9993 23.4003 23.9993 22.667C23.9993 21.9337 23.3993 21.3337 22.666 21.3337Z" fill="#50AED4"/>
</svg>
