<svg width="22" height="22" viewBox="0 0 22 22" fill="none" xmlns="http://www.w3.org/2000/svg">
<path d="M10.9998 16.9577C14.2905 16.9577 16.9582 14.29 16.9582 10.9993C16.9582 7.70865 14.2905 5.04102 10.9998 5.04102C7.70914 5.04102 5.0415 7.70865 5.0415 10.9993C5.0415 14.29 7.70914 16.9577 10.9998 16.9577Z" stroke="white" stroke-width="1.5" stroke-linecap="round" stroke-linejoin="round"/>
<path d="M17.5452 17.5456L17.426 17.4265M17.426 4.57482L17.5452 4.45565L17.426 4.57482ZM4.45516 17.5456L4.57433 17.4265L4.45516 17.5456ZM11.0002 1.90732V1.83398V1.90732ZM11.0002 20.1673V20.094V20.1673ZM1.90683 11.0007H1.8335H1.90683ZM20.1668 11.0007H20.0935H20.1668ZM4.57433 4.57482L4.45516 4.45565L4.57433 4.57482Z" stroke="white" stroke-width="2" stroke-linecap="round" stroke-linejoin="round"/>
</svg>
