<svg width="22" height="22" viewBox="0 0 22 22" fill="none" xmlns="http://www.w3.org/2000/svg">
<path d="M10.9993 16.9587C14.29 16.9587 16.9577 14.291 16.9577 11.0003C16.9577 7.70963 14.29 5.04199 10.9993 5.04199C7.70865 5.04199 5.04102 7.70963 5.04102 11.0003C5.04102 14.291 7.70865 16.9587 10.9993 16.9587Z" stroke="black" stroke-width="1.5" stroke-linecap="round" stroke-linejoin="round"/>
<path d="M17.5456 17.5447L17.4265 17.4255M17.4265 4.57384L17.5456 4.45467L17.4265 4.57384ZM4.45565 17.5447L4.57482 17.4255L4.45565 17.5447ZM11.0007 1.90634V1.83301V1.90634ZM11.0007 20.1663V20.093V20.1663ZM1.90732 10.9997H1.83398H1.90732ZM20.1673 10.9997H20.094H20.1673ZM4.57482 4.57384L4.45565 4.45467L4.57482 4.57384Z" stroke="black" stroke-width="2" stroke-linecap="round" stroke-linejoin="round"/>
</svg>
