<svg width="15" height="15" viewBox="0 0 15 15" fill="none" xmlns="http://www.w3.org/2000/svg">
<path d="M13.8 14.8687L11.8313 12.9H1.96875V10.8C1.96875 10.375 2.07812 9.98438 2.29688 9.62813C2.51562 9.27188 2.80625 9 3.16875 8.8125C3.73125 8.525 4.30312 8.29375 4.88438 8.11875C5.46563 7.94375 6.05625 7.8125 6.65625 7.725L0 1.06875L1.06875 0L14.8687 13.8L13.8 14.8687ZM3.46875 11.4H10.3313L8.08125 9.15C8.05625 9.15 8.0375 9.15 8.025 9.15C8.0125 9.15 7.99375 9.15 7.96875 9.15C7.26875 9.15 6.575 9.23438 5.8875 9.40312C5.2 9.57187 4.51875 9.825 3.84375 10.1625C3.73125 10.225 3.64062 10.3125 3.57188 10.425C3.50313 10.5375 3.46875 10.6625 3.46875 10.8V11.4ZM12.7688 8.8125C13.1313 8.9875 13.4188 9.25313 13.6313 9.60938C13.8438 9.96562 13.9563 10.35 13.9688 10.7625L11.4563 8.25C11.6813 8.3375 11.9031 8.425 12.1219 8.5125C12.3406 8.6 12.5563 8.7 12.7688 8.8125ZM9.61875 6.4125L8.5125 5.30625C8.8 5.19375 9.03125 5.00938 9.20625 4.75313C9.38125 4.49688 9.46875 4.2125 9.46875 3.9C9.46875 3.4875 9.32187 3.13438 9.02812 2.84063C8.73438 2.54688 8.38125 2.4 7.96875 2.4C7.65625 2.4 7.37187 2.4875 7.11562 2.6625C6.85938 2.8375 6.675 3.06875 6.5625 3.35625L5.45625 2.25C5.74375 1.825 6.10625 1.49375 6.54375 1.25625C6.98125 1.01875 7.45625 0.9 7.96875 0.9C8.79375 0.9 9.5 1.19375 10.0875 1.78125C10.675 2.36875 10.9688 3.075 10.9688 3.9C10.9688 4.4125 10.85 4.8875 10.6125 5.325C10.375 5.7625 10.0437 6.125 9.61875 6.4125ZM10.3313 11.4H3.46875C3.46875 11.4 3.50313 11.4 3.57188 11.4C3.64062 11.4 3.73125 11.4 3.84375 11.4C4.18125 11.4 4.53125 11.4 4.89375 11.4C5.25625 11.4 5.68437 11.4 6.17812 11.4C6.67188 11.4 7.25313 11.4 7.92188 11.4C8.59062 11.4 9.39375 11.4 10.3313 11.4Z" fill="black"/>
</svg>
