<svg width="32" height="32" viewBox="0 0 32 32" fill="none" xmlns="http://www.w3.org/2000/svg">
<path d="M28.1017 11.4394V20.5593C28.1017 22.0527 27.3017 23.4394 26.0083 24.1994L18.0883 28.7727C16.795 29.5194 15.195 29.5194 13.8883 28.7727L5.96833 24.1994C4.675 23.4527 3.875 22.066 3.875 20.5593V11.4394C3.875 9.94606 4.675 8.55934 5.96833 7.79934L13.8883 3.22602C15.1817 2.47935 16.7817 2.47935 18.0883 3.22602L26.0083 7.79934C27.3017 8.55934 28.1017 9.93273 28.1017 11.4394Z" stroke="#58A19A" stroke-width="2" stroke-linecap="round" stroke-linejoin="round"/>
<path d="M16.0032 14.6664C17.7189 14.6664 19.1098 13.2755 19.1098 11.5597C19.1098 9.84397 17.7189 8.45312 16.0032 8.45312C14.2874 8.45312 12.8965 9.84397 12.8965 11.5597C12.8965 13.2755 14.2874 14.6664 16.0032 14.6664Z" stroke="#58A19A" stroke-width="2" stroke-linecap="round" stroke-linejoin="round"/>
<path d="M21.3337 22.2118C21.3337 19.8118 18.947 17.8652 16.0003 17.8652C13.0537 17.8652 10.667 19.8118 10.667 22.2118" stroke="#58A19A" stroke-width="2" stroke-linecap="round" stroke-linejoin="round"/>
</svg>
