<svg width="32" height="32" viewBox="0 0 32 32" fill="none" xmlns="http://www.w3.org/2000/svg">
<path d="M14.3351 22.4805V25.1872C14.3351 27.4805 12.2018 29.3338 9.57511 29.3338C6.94845 29.3338 4.80176 27.4805 4.80176 25.1872V22.4805C4.80176 24.7738 6.93511 26.4005 9.57511 26.4005C12.2018 26.4005 14.3351 24.7605 14.3351 22.4805Z" stroke="#50AED4" stroke-width="2" stroke-linecap="round" stroke-linejoin="round"/>
<path d="M14.3386 18.813C14.3386 19.4797 14.152 20.093 13.832 20.6263C13.0453 21.9196 11.4319 22.733 9.56527 22.733C7.6986 22.733 6.08525 21.9063 5.29858 20.6263C4.97858 20.093 4.79199 19.4797 4.79199 18.813C4.79199 17.6663 5.3253 16.6397 6.17863 15.893C7.0453 15.133 8.23192 14.6797 9.55192 14.6797C10.8719 14.6797 12.0586 15.1463 12.9253 15.893C13.8053 16.6263 14.3386 17.6663 14.3386 18.813Z" stroke="#50AED4" stroke-width="2" stroke-linecap="round" stroke-linejoin="round"/>
<path d="M14.3351 18.8127V22.4793C14.3351 24.7727 12.2018 26.3993 9.57511 26.3993C6.94845 26.3993 4.80176 24.7593 4.80176 22.4793V18.8127C4.80176 16.5193 6.93511 14.666 9.57511 14.666C10.8951 14.666 12.0818 15.1326 12.9485 15.8793C13.8018 16.626 14.3351 17.666 14.3351 18.8127Z" stroke="#50AED4" stroke-width="2" stroke-linecap="round" stroke-linejoin="round"/>
<path d="M29.3281 14.6275V17.3743C29.3281 18.1076 28.7414 18.7075 27.9948 18.7342H25.3814C23.9414 18.7342 22.6214 17.6809 22.5014 16.2409C22.4214 15.4009 22.7414 14.6142 23.3014 14.0675C23.7947 13.5609 24.4747 13.2676 25.2214 13.2676H27.9948C28.7414 13.2942 29.3281 13.8942 29.3281 14.6275Z" stroke="#50AED4" stroke-width="2" stroke-linecap="round" stroke-linejoin="round"/>
<path d="M2.66699 13.9993V11.3327C2.66699 7.70602 4.85366 5.17268 8.25366 4.74601C8.60033 4.69268 8.96033 4.66602 9.33366 4.66602H21.3337C21.6803 4.66602 22.0137 4.67933 22.3337 4.73267C25.7737 5.13267 28.0003 7.67935 28.0003 11.3327V13.266H25.227C24.4803 13.266 23.8003 13.5593 23.307 14.066C22.747 14.6127 22.427 15.3993 22.507 16.2393C22.627 17.6793 23.947 18.7327 25.387 18.7327H28.0003V20.666C28.0003 24.666 25.3337 27.3327 21.3337 27.3327H18.0003" stroke="#50AED4" stroke-width="2" stroke-linecap="round" stroke-linejoin="round"/>
</svg>
